<svg width="20" height="20" viewBox="0 0 20 20" fill="none" xmlns="http://www.w3.org/2000/svg">
<path d="M17.4559 6.92104C17.4475 6.28989 17.3293 5.66502 17.1067 5.07437C16.9137 4.57617 16.6188 4.12371 16.241 3.7459C15.8632 3.36809 15.4108 3.07325 14.9126 2.88021C14.3295 2.66134 13.7135 2.54299 13.0909 2.53021C12.2892 2.49438 12.0351 2.48438 10.0001 2.48438C7.96506 2.48438 7.70423 2.48438 6.90839 2.53021C6.28602 2.54309 5.67035 2.66143 5.08756 2.88021C4.58927 3.07312 4.13674 3.36791 3.75892 3.74574C3.3811 4.12356 3.0863 4.57609 2.89339 5.07437C2.67408 5.65699 2.55599 6.2728 2.54423 6.89521C2.50839 7.69771 2.49756 7.95187 2.49756 9.98687C2.49756 12.0219 2.49756 12.2819 2.54423 13.0785C2.55673 13.7019 2.67423 14.3169 2.89339 14.901C3.08662 15.3992 3.38164 15.8515 3.75959 16.2292C4.13754 16.6068 4.59011 16.9015 5.08839 17.0944C5.66959 17.322 6.28537 17.4489 6.90923 17.4694C7.71173 17.5052 7.96589 17.516 10.0009 17.516C12.0359 17.516 12.2967 17.516 13.0926 17.4694C13.7152 17.4571 14.3312 17.339 14.9142 17.1202C15.4123 16.9269 15.8646 16.632 16.2424 16.2542C16.6202 15.8765 16.9151 15.4241 17.1084 14.926C17.3276 14.3427 17.4451 13.7277 17.4576 13.1035C17.4934 12.3019 17.5042 12.0477 17.5042 10.0119C17.5026 7.97687 17.5026 7.71854 17.4559 6.92104ZM9.99506 13.8352C7.86673 13.8352 6.14256 12.111 6.14256 9.98271C6.14256 7.85437 7.86673 6.13021 9.99506 6.13021C11.0168 6.13021 11.9967 6.5361 12.7192 7.25858C13.4417 7.98106 13.8476 8.96096 13.8476 9.98271C13.8476 11.0045 13.4417 11.9844 12.7192 12.7068C11.9967 13.4293 11.0168 13.8352 9.99506 13.8352ZM14.0009 6.88604C13.8829 6.88615 13.766 6.86299 13.657 6.81788C13.5479 6.77278 13.4489 6.70661 13.3654 6.62317C13.282 6.53973 13.2158 6.44066 13.1707 6.33161C13.1256 6.22257 13.1024 6.10571 13.1026 5.98771C13.1026 5.86979 13.1258 5.75303 13.1709 5.64409C13.216 5.53515 13.2822 5.43616 13.3656 5.35279C13.4489 5.26941 13.5479 5.20327 13.6569 5.15814C13.7658 5.11302 13.8826 5.08979 14.0005 5.08979C14.1184 5.08979 14.2352 5.11302 14.3441 5.15814C14.453 5.20327 14.552 5.26941 14.6354 5.35279C14.7188 5.43616 14.7849 5.53515 14.83 5.64409C14.8752 5.75303 14.8984 5.86979 14.8984 5.98771C14.8984 6.48437 14.4967 6.88604 14.0009 6.88604Z" fill="white"/>
<path d="M9.99505 12.485C11.3771 12.485 12.4976 11.3646 12.4976 9.98248C12.4976 8.60039 11.3771 7.47998 9.99505 7.47998C8.61296 7.47998 7.49255 8.60039 7.49255 9.98248C7.49255 11.3646 8.61296 12.485 9.99505 12.485Z" fill="white"/>
</svg>
