<svg width="91" height="90" viewBox="0 0 91 90" fill="none" xmlns="http://www.w3.org/2000/svg">
<path d="M21.8096 57.698C23.7048 62.5385 27.5052 67.0141 32.5252 68.59C37.3207 70.0954 42.166 65.9612 47.2436 65.6824C51.8902 65.4272 56.3917 68.66 60.7874 67.0382C65.4331 65.3241 69.7063 61.5114 71.186 56.8486C72.6338 52.2861 68.8974 47.9831 68.3216 43.2957C67.7534 38.6711 70.8037 33.1333 67.8355 29.5765C64.8696 26.0223 58.7814 28.0711 54.3491 26.5522C49.6185 24.931 46.105 20.0052 41.0532 20.3983C35.8517 20.803 31.3524 24.61 27.9577 28.6058C24.6309 32.5218 23.347 37.5169 22.2996 42.4729C21.2219 47.5728 19.9377 52.9171 21.8096 57.698Z" fill="url(#paint0_angular_25_141)"/>
<g style="mix-blend-mode:hard-light" opacity="0.6">
<path d="M28.6973 53.9822C30.0379 57.4063 32.7262 60.5722 36.2772 61.6869C39.6695 62.7518 43.0969 59.8274 46.6887 59.6301C49.9755 59.4497 53.1598 61.7365 56.2692 60.5892C59.5554 59.3767 62.5782 56.6797 63.6249 53.3814C64.649 50.154 62.006 47.1101 61.5986 43.7944C61.1967 40.5231 63.3544 36.6058 61.2548 34.0898C59.1568 31.5757 54.8502 33.025 51.7149 31.9505C48.3686 30.8037 45.8832 27.3193 42.3097 27.5974C38.6303 27.8837 35.4476 30.5767 33.0463 33.4032C30.693 36.1732 29.7848 39.7067 29.044 43.2124C28.2816 46.8199 27.3732 50.6003 28.6973 53.9822Z" fill="url(#paint1_angular_25_141)"/>
</g>
<defs>
<radialGradient id="paint0_angular_25_141" cx="0" cy="0" r="1" gradientUnits="userSpaceOnUse" gradientTransform="translate(45.3468 45) rotate(-13.4453) scale(25.8608 25.0749)">
<stop offset="0.121847" stop-color="white" stop-opacity="0"/>
<stop offset="0.217907" stop-color="white"/>
<stop offset="0.321282" stop-color="white" stop-opacity="0"/>
<stop offset="0.433259" stop-color="white"/>
<stop offset="0.509566" stop-color="white" stop-opacity="0"/>
<stop offset="0.577558" stop-color="white"/>
<stop offset="0.667379" stop-color="white" stop-opacity="0"/>
<stop offset="0.766797" stop-color="white"/>
<stop offset="0.873934" stop-color="white" stop-opacity="0"/>
<stop offset="1" stop-color="white"/>
</radialGradient>
<radialGradient id="paint1_angular_25_141" cx="0" cy="0" r="1" gradientUnits="userSpaceOnUse" gradientTransform="translate(45.3469 45) rotate(-13.4453) scale(18.2933 17.7373)">
<stop offset="0.121847" stop-color="white" stop-opacity="0"/>
<stop offset="0.217907" stop-color="white"/>
<stop offset="0.321282" stop-color="white" stop-opacity="0"/>
<stop offset="0.433259" stop-color="white"/>
<stop offset="0.509566" stop-color="white" stop-opacity="0"/>
<stop offset="0.577558" stop-color="white"/>
<stop offset="0.667379" stop-color="white" stop-opacity="0"/>
<stop offset="0.766797" stop-color="white"/>
<stop offset="0.873934" stop-color="white" stop-opacity="0"/>
<stop offset="1" stop-color="white"/>
</radialGradient>
</defs>
</svg>
